<?xml version="1.0" encoding="utf-8"?>

<!-- Uploaded to: SVG Repo, www.svgrepo.com, Generator: SVG Repo Mixer Tools -->
<svg version="1.1" id="Icons" xmlns="http://www.w3.org/2000/svg" xmlns:xlink="http://www.w3.org/1999/xlink" 
	 viewBox="0 0 32 32" xml:space="preserve">
<style type="text/css">
	.st0{fill:#FFFFFF;}
	.st1{fill:#3A559F;}
	.st2{fill:#F4F4F4;}
	.st3{fill:#FF0084;}
	.st4{fill:#0063DB;}
	.st5{fill:#00ACED;}
	.st6{fill:#FFEC06;}
	.st7{fill:#FF0000;}
	.st8{fill:#25D366;}
	.st9{fill:#0088FF;}
	.st10{fill:#314358;}
	.st11{fill:#EE6996;}
	.st12{fill:#01AEF3;}
	.st13{fill:#FFFEFF;}
	.st14{fill:#F06A35;}
	.st15{fill:#00ADEF;}
	.st16{fill:#1769FF;}
	.st17{fill:#1AB7EA;}
	.st18{fill:#6001D1;}
	.st19{fill:#E41214;}
	.st20{fill:#05CE78;}
	.st21{fill:#7B519C;}
	.st22{fill:#FF4500;}
	.st23{fill:#00F076;}
	.st24{fill:#FFC900;}
	.st25{fill:#00D6FF;}
	.st26{fill:#FF3A44;}
	.st27{fill:#FF6A36;}
	.st28{fill:#0061FE;}
	.st29{fill:#F7981C;}
	.st30{fill:#EE1B22;}
	.st31{fill:#EF3561;}
	.st32{fill:none;stroke:#FFFFFF;stroke-width:2;stroke-miterlimit:10;}
	.st33{fill:#0097D3;}
	.st34{fill:#01308A;}
	.st35{fill:#019CDE;}
	.st36{fill:#FFD049;}
	.st37{fill:#16A05D;}
	.st38{fill:#4486F4;}
	.st39{fill:none;}
	.st40{fill:#34A853;}
	.st41{fill:#4285F4;}
	.st42{fill:#FBBC05;}
	.st43{fill:#EA4335;}
</style>
<path class="st33" d="M23,0H9C4,0,0,4,0,9v14c0,5,4,9,9,9h14c5,0,9-4,9-9V9C32,4,28,0,23,0z"/>
<path class="st0" d="M12,25c0,0.6-0.4,1-1,1H7c-0.6,0-1-0.4-1-1V13c0-0.6,0.4-1,1-1h4c0.6,0,1,0.4,1,1V25z M9,11c-1.7,0-3-1.3-3-3
	s1.3-3,3-3s3,1.3,3,3S10.7,11,9,11z M26,25c0,0.6-0.4,1-1,1h-3c-0.6,0-1-0.4-1-1v-3.5v-1v-2c0-0.8-0.7-1.5-1.5-1.5S18,17.7,18,18.5
	v2v1V25c0,0.6-0.4,1-1,1h-3c-0.6,0-1-0.4-1-1V13c0-0.6,0.4-1,1-1h4c0.3,0,0.5,0.1,0.7,0.3c0.6-0.2,1.2-0.3,1.8-0.3
	c3,0,5.5,2.5,5.5,5.5V25z"/>
</svg>