<?xml version="1.0" standalone="no"?>
<!DOCTYPE svg PUBLIC "-//W3C//DTD SVG 20010904//EN"
 "http://www.w3.org/TR/2001/REC-SVG-20010904/DTD/svg10.dtd">
<svg version="1.0" xmlns="http://www.w3.org/2000/svg"
 width="470.000000pt" height="470.000000pt" viewBox="0 0 470.000000 470.000000"
 preserveAspectRatio="xMidYMid meet">
<metadata>
Created by potrace 1.14, written by Peter Selinger 2001-2017
</metadata>
<g transform="translate(0.000000,470.000000) scale(0.100000,-0.100000)"
fill="#000000" stroke="none">
<path d="M168 4693 c7 -3 16 -2 19 1 4 3 -2 6 -13 5 -11 0 -14 -3 -6 -6z"/>
<path d="M4518 4693 c7 -3 16 -2 19 1 4 3 -2 6 -13 5 -11 0 -14 -3 -6 -6z"/>
<path d="M4692 4520 c0 -14 2 -19 5 -12 2 6 2 18 0 25 -3 6 -5 1 -5 -13z"/>
<path d="M1 4514 c0 -11 3 -14 6 -6 3 7 2 16 -1 19 -3 4 -6 -2 -5 -13z"/>
<path d="M997 3873 c-4 -3 -7 -251 -7 -550 l0 -543 480 -2 480 -3 -138 -230
c-76 -126 -178 -295 -227 -375 -48 -80 -109 -181 -136 -225 -26 -44 -96 -161
-156 -260 -60 -99 -157 -260 -216 -357 l-107 -177 0 -110 0 -111 1380 0 1380
0 0 545 0 545 -725 0 c-399 0 -725 3 -725 6 0 3 5 14 10 25 10 18 24 19 255
19 l244 0 68 118 c69 116 201 343 337 580 39 67 103 178 142 245 39 67 108
187 154 267 46 80 123 213 172 297 l89 151 -3 74 -3 73 -1371 3 c-754 1 -1374
-1 -1377 -5z"/>
<path d="M2 180 c0 -14 2 -19 5 -12 2 6 2 18 0 25 -3 6 -5 1 -5 -13z"/>
<path d="M4690 180 c0 -12 -9 -40 -21 -63 l-21 -42 26 30 c22 26 37 95 21 95
-3 0 -5 -9 -5 -20z"/>
<path d="M4570 25 c-14 -8 -20 -14 -14 -15 5 0 19 7 30 15 24 18 16 19 -16 0z"/>
<path d="M178 3 c7 -3 16 -2 19 1 4 3 -2 6 -13 5 -11 0 -14 -3 -6 -6z"/>
</g>
</svg>
