<svg xmlns="http://www.w3.org/2000/svg" version="1.1" xmlns:xlink="http://www.w3.org/1999/xlink" xmlns:svgjs="http://svgjs.dev/svgjs" viewBox="0 0 800 800" opacity="0.1" width="800" height="800"><g stroke-width="0.5" stroke="hsla(220, 4%, 303%, 1.00)" fill="none"><rect width="61.53846153846154" height="61.53846153846154" x="0" y="0"></rect><rect width="61.53846153846154" height="61.53846153846154" x="61.53846153846154" y="0"></rect><rect width="61.53846153846154" height="61.53846153846154" x="123.07692307692308" y="0"></rect><rect width="61.53846153846154" height="61.53846153846154" x="184.6153846153846" y="0"></rect><rect width="61.53846153846154" height="61.53846153846154" x="246.15384615384616" y="0"></rect><rect width="61.53846153846154" height="61.53846153846154" x="307.6923076923077" y="0"></rect><rect width="61.53846153846154" height="61.53846153846154" x="369.2307692307692" y="0"></rect><rect width="61.53846153846154" height="61.53846153846154" x="430.7692307692308" y="0"></rect><rect width="61.53846153846154" height="61.53846153846154" x="492.3076923076923" y="0"></rect><rect width="61.53846153846154" height="61.53846153846154" x="553.8461538461538" y="0"></rect><rect width="61.53846153846154" height="61.53846153846154" x="615.3846153846154" y="0"></rect><rect width="61.53846153846154" height="61.53846153846154" x="676.9230769230769" y="0"></rect><rect width="61.53846153846154" height="61.53846153846154" x="738.4615384615385" y="0"></rect><rect width="61.53846153846154" height="61.53846153846154" x="800" y="0"></rect><rect width="61.53846153846154" height="61.53846153846154" x="0" y="61.53846153846154"></rect><rect width="61.53846153846154" height="61.53846153846154" x="61.53846153846154" y="61.53846153846154"></rect><rect width="61.53846153846154" height="61.53846153846154" x="123.07692307692308" y="61.53846153846154"></rect><rect width="61.53846153846154" height="61.53846153846154" x="184.6153846153846" y="61.53846153846154"></rect><rect width="61.53846153846154" height="61.53846153846154" x="246.15384615384616" y="61.53846153846154"></rect><rect width="61.53846153846154" height="61.53846153846154" x="307.6923076923077" y="61.53846153846154"></rect><rect width="61.53846153846154" height="61.53846153846154" x="369.2307692307692" y="61.53846153846154"></rect><rect width="61.53846153846154" height="61.53846153846154" x="430.7692307692308" y="61.53846153846154"></rect><rect width="61.53846153846154" height="61.53846153846154" x="492.3076923076923" y="61.53846153846154"></rect><rect width="61.53846153846154" height="61.53846153846154" x="553.8461538461538" y="61.53846153846154"></rect><rect width="61.53846153846154" height="61.53846153846154" x="615.3846153846154" y="61.53846153846154"></rect><rect width="61.53846153846154" height="61.53846153846154" x="676.9230769230769" y="61.53846153846154"></rect><rect width="61.53846153846154" height="61.53846153846154" x="738.4615384615385" y="61.53846153846154"></rect><rect width="61.53846153846154" height="61.53846153846154" x="800" y="61.53846153846154"></rect><rect width="61.53846153846154" height="61.53846153846154" x="0" y="123.07692307692308"></rect><rect width="61.53846153846154" height="61.53846153846154" x="61.53846153846154" y="123.07692307692308"></rect><rect width="61.53846153846154" height="61.53846153846154" x="123.07692307692308" y="123.07692307692308"></rect><rect width="61.53846153846154" height="61.53846153846154" x="184.6153846153846" y="123.07692307692308"></rect><rect width="61.53846153846154" height="61.53846153846154" x="246.15384615384616" y="123.07692307692308"></rect><rect width="61.53846153846154" height="61.53846153846154" x="307.6923076923077" y="123.07692307692308"></rect><rect width="61.53846153846154" height="61.53846153846154" x="369.2307692307692" y="123.07692307692308"></rect><rect width="61.53846153846154" height="61.53846153846154" x="430.7692307692308" y="123.07692307692308"></rect><rect width="61.53846153846154" height="61.53846153846154" x="492.3076923076923" y="123.07692307692308"></rect><rect width="61.53846153846154" height="61.53846153846154" x="553.8461538461538" y="123.07692307692308"></rect><rect width="61.53846153846154" height="61.53846153846154" x="615.3846153846154" y="123.07692307692308"></rect><rect width="61.53846153846154" height="61.53846153846154" x="676.9230769230769" y="123.07692307692308"></rect><rect width="61.53846153846154" height="61.53846153846154" x="738.4615384615385" y="123.07692307692308"></rect><rect width="61.53846153846154" height="61.53846153846154" x="800" y="123.07692307692308"></rect><rect width="61.53846153846154" height="61.53846153846154" x="0" y="184.6153846153846"></rect><rect width="61.53846153846154" height="61.53846153846154" x="61.53846153846154" y="184.6153846153846"></rect><rect width="61.53846153846154" height="61.53846153846154" x="123.07692307692308" y="184.6153846153846"></rect><rect width="61.53846153846154" height="61.53846153846154" x="184.6153846153846" y="184.6153846153846"></rect><rect width="61.53846153846154" height="61.53846153846154" x="246.15384615384616" y="184.6153846153846"></rect><rect width="61.53846153846154" height="61.53846153846154" x="307.6923076923077" y="184.6153846153846"></rect><rect width="61.53846153846154" height="61.53846153846154" x="369.2307692307692" y="184.6153846153846"></rect><rect width="61.53846153846154" height="61.53846153846154" x="430.7692307692308" y="184.6153846153846"></rect><rect width="61.53846153846154" height="61.53846153846154" x="492.3076923076923" y="184.6153846153846"></rect><rect width="61.53846153846154" height="61.53846153846154" x="553.8461538461538" y="184.6153846153846"></rect><rect width="61.53846153846154" height="61.53846153846154" x="615.3846153846154" y="184.6153846153846"></rect><rect width="61.53846153846154" height="61.53846153846154" x="676.9230769230769" y="184.6153846153846"></rect><rect width="61.53846153846154" height="61.53846153846154" x="738.4615384615385" y="184.6153846153846"></rect><rect width="61.53846153846154" height="61.53846153846154" x="800" y="184.6153846153846"></rect><rect width="61.53846153846154" height="61.53846153846154" x="0" y="246.15384615384616"></rect><rect width="61.53846153846154" height="61.53846153846154" x="61.53846153846154" y="246.15384615384616"></rect><rect width="61.53846153846154" height="61.53846153846154" x="123.07692307692308" y="246.15384615384616"></rect><rect width="61.53846153846154" height="61.53846153846154" x="184.6153846153846" y="246.15384615384616"></rect><rect width="61.53846153846154" height="61.53846153846154" x="246.15384615384616" y="246.15384615384616"></rect><rect width="61.53846153846154" height="61.53846153846154" x="307.6923076923077" y="246.15384615384616"></rect><rect width="61.53846153846154" height="61.53846153846154" x="369.2307692307692" y="246.15384615384616"></rect><rect width="61.53846153846154" height="61.53846153846154" x="430.7692307692308" y="246.15384615384616"></rect><rect width="61.53846153846154" height="61.53846153846154" x="492.3076923076923" y="246.15384615384616"></rect><rect width="61.53846153846154" height="61.53846153846154" x="553.8461538461538" y="246.15384615384616"></rect><rect width="61.53846153846154" height="61.53846153846154" x="615.3846153846154" y="246.15384615384616"></rect><rect width="61.53846153846154" height="61.53846153846154" x="676.9230769230769" y="246.15384615384616"></rect><rect width="61.53846153846154" height="61.53846153846154" x="738.4615384615385" y="246.15384615384616"></rect><rect width="61.53846153846154" height="61.53846153846154" x="800" y="246.15384615384616"></rect><rect width="61.53846153846154" height="61.53846153846154" x="0" y="307.6923076923077"></rect><rect width="61.53846153846154" height="61.53846153846154" x="61.53846153846154" y="307.6923076923077"></rect><rect width="61.53846153846154" height="61.53846153846154" x="123.07692307692308" y="307.6923076923077"></rect><rect width="61.53846153846154" height="61.53846153846154" x="184.6153846153846" y="307.6923076923077"></rect><rect width="61.53846153846154" height="61.53846153846154" x="246.15384615384616" y="307.6923076923077"></rect><rect width="61.53846153846154" height="61.53846153846154" x="307.6923076923077" y="307.6923076923077"></rect><rect width="61.53846153846154" height="61.53846153846154" x="369.2307692307692" y="307.6923076923077"></rect><rect width="61.53846153846154" height="61.53846153846154" x="430.7692307692308" y="307.6923076923077"></rect><rect width="61.53846153846154" height="61.53846153846154" x="492.3076923076923" y="307.6923076923077"></rect><rect width="61.53846153846154" height="61.53846153846154" x="553.8461538461538" y="307.6923076923077"></rect><rect width="61.53846153846154" height="61.53846153846154" x="615.3846153846154" y="307.6923076923077"></rect><rect width="61.53846153846154" height="61.53846153846154" x="676.9230769230769" y="307.6923076923077"></rect><rect width="61.53846153846154" height="61.53846153846154" x="738.4615384615385" y="307.6923076923077"></rect><rect width="61.53846153846154" height="61.53846153846154" x="800" y="307.6923076923077"></rect><rect width="61.53846153846154" height="61.53846153846154" x="0" y="369.2307692307692"></rect><rect width="61.53846153846154" height="61.53846153846154" x="61.53846153846154" y="369.2307692307692"></rect><rect width="61.53846153846154" height="61.53846153846154" x="123.07692307692308" y="369.2307692307692"></rect><rect width="61.53846153846154" height="61.53846153846154" x="184.6153846153846" y="369.2307692307692"></rect><rect width="61.53846153846154" height="61.53846153846154" x="246.15384615384616" y="369.2307692307692"></rect><rect width="61.53846153846154" height="61.53846153846154" x="307.6923076923077" y="369.2307692307692"></rect><rect width="61.53846153846154" height="61.53846153846154" x="369.2307692307692" y="369.2307692307692"></rect><rect width="61.53846153846154" height="61.53846153846154" x="430.7692307692308" y="369.2307692307692"></rect><rect width="61.53846153846154" height="61.53846153846154" x="492.3076923076923" y="369.2307692307692"></rect><rect width="61.53846153846154" height="61.53846153846154" x="553.8461538461538" y="369.2307692307692"></rect><rect width="61.53846153846154" height="61.53846153846154" x="615.3846153846154" y="369.2307692307692"></rect><rect width="61.53846153846154" height="61.53846153846154" x="676.9230769230769" y="369.2307692307692"></rect><rect width="61.53846153846154" height="61.53846153846154" x="738.4615384615385" y="369.2307692307692"></rect><rect width="61.53846153846154" height="61.53846153846154" x="800" y="369.2307692307692"></rect><rect width="61.53846153846154" height="61.53846153846154" x="0" y="430.7692307692308"></rect><rect width="61.53846153846154" height="61.53846153846154" x="61.53846153846154" y="430.7692307692308"></rect><rect width="61.53846153846154" height="61.53846153846154" x="123.07692307692308" y="430.7692307692308"></rect><rect width="61.53846153846154" height="61.53846153846154" x="184.6153846153846" y="430.7692307692308"></rect><rect width="61.53846153846154" height="61.53846153846154" x="246.15384615384616" y="430.7692307692308"></rect><rect width="61.53846153846154" height="61.53846153846154" x="307.6923076923077" y="430.7692307692308"></rect><rect width="61.53846153846154" height="61.53846153846154" x="369.2307692307692" y="430.7692307692308"></rect><rect width="61.53846153846154" height="61.53846153846154" x="430.7692307692308" y="430.7692307692308"></rect><rect width="61.53846153846154" height="61.53846153846154" x="492.3076923076923" y="430.7692307692308"></rect><rect width="61.53846153846154" height="61.53846153846154" x="553.8461538461538" y="430.7692307692308"></rect><rect width="61.53846153846154" height="61.53846153846154" x="615.3846153846154" y="430.7692307692308"></rect><rect width="61.53846153846154" height="61.53846153846154" x="676.9230769230769" y="430.7692307692308"></rect><rect width="61.53846153846154" height="61.53846153846154" x="738.4615384615385" y="430.7692307692308"></rect><rect width="61.53846153846154" height="61.53846153846154" x="800" y="430.7692307692308"></rect><rect width="61.53846153846154" height="61.53846153846154" x="0" y="492.3076923076923"></rect><rect width="61.53846153846154" height="61.53846153846154" x="61.53846153846154" y="492.3076923076923"></rect><rect width="61.53846153846154" height="61.53846153846154" x="123.07692307692308" y="492.3076923076923"></rect><rect width="61.53846153846154" height="61.53846153846154" x="184.6153846153846" y="492.3076923076923"></rect><rect width="61.53846153846154" height="61.53846153846154" x="246.15384615384616" y="492.3076923076923"></rect><rect width="61.53846153846154" height="61.53846153846154" x="307.6923076923077" y="492.3076923076923"></rect><rect width="61.53846153846154" height="61.53846153846154" x="369.2307692307692" y="492.3076923076923"></rect><rect width="61.53846153846154" height="61.53846153846154" x="430.7692307692308" y="492.3076923076923"></rect><rect width="61.53846153846154" height="61.53846153846154" x="492.3076923076923" y="492.3076923076923"></rect><rect width="61.53846153846154" height="61.53846153846154" x="553.8461538461538" y="492.3076923076923"></rect><rect width="61.53846153846154" height="61.53846153846154" x="615.3846153846154" y="492.3076923076923"></rect><rect width="61.53846153846154" height="61.53846153846154" x="676.9230769230769" y="492.3076923076923"></rect><rect width="61.53846153846154" height="61.53846153846154" x="738.4615384615385" y="492.3076923076923"></rect><rect width="61.53846153846154" height="61.53846153846154" x="800" y="492.3076923076923"></rect><rect width="61.53846153846154" height="61.53846153846154" x="0" y="553.8461538461538"></rect><rect width="61.53846153846154" height="61.53846153846154" x="61.53846153846154" y="553.8461538461538"></rect><rect width="61.53846153846154" height="61.53846153846154" x="123.07692307692308" y="553.8461538461538"></rect><rect width="61.53846153846154" height="61.53846153846154" x="184.6153846153846" y="553.8461538461538"></rect><rect width="61.53846153846154" height="61.53846153846154" x="246.15384615384616" y="553.8461538461538"></rect><rect width="61.53846153846154" height="61.53846153846154" x="307.6923076923077" y="553.8461538461538"></rect><rect width="61.53846153846154" height="61.53846153846154" x="369.2307692307692" y="553.8461538461538"></rect><rect width="61.53846153846154" height="61.53846153846154" x="430.7692307692308" y="553.8461538461538"></rect><rect width="61.53846153846154" height="61.53846153846154" x="492.3076923076923" y="553.8461538461538"></rect><rect width="61.53846153846154" height="61.53846153846154" x="553.8461538461538" y="553.8461538461538"></rect><rect width="61.53846153846154" height="61.53846153846154" x="615.3846153846154" y="553.8461538461538"></rect><rect width="61.53846153846154" height="61.53846153846154" x="676.9230769230769" y="553.8461538461538"></rect><rect width="61.53846153846154" height="61.53846153846154" x="738.4615384615385" y="553.8461538461538"></rect><rect width="61.53846153846154" height="61.53846153846154" x="800" y="553.8461538461538"></rect><rect width="61.53846153846154" height="61.53846153846154" x="0" y="615.3846153846154"></rect><rect width="61.53846153846154" height="61.53846153846154" x="61.53846153846154" y="615.3846153846154"></rect><rect width="61.53846153846154" height="61.53846153846154" x="123.07692307692308" y="615.3846153846154"></rect><rect width="61.53846153846154" height="61.53846153846154" x="184.6153846153846" y="615.3846153846154"></rect><rect width="61.53846153846154" height="61.53846153846154" x="246.15384615384616" y="615.3846153846154"></rect><rect width="61.53846153846154" height="61.53846153846154" x="307.6923076923077" y="615.3846153846154"></rect><rect width="61.53846153846154" height="61.53846153846154" x="369.2307692307692" y="615.3846153846154"></rect><rect width="61.53846153846154" height="61.53846153846154" x="430.7692307692308" y="615.3846153846154"></rect><rect width="61.53846153846154" height="61.53846153846154" x="492.3076923076923" y="615.3846153846154"></rect><rect width="61.53846153846154" height="61.53846153846154" x="553.8461538461538" y="615.3846153846154"></rect><rect width="61.53846153846154" height="61.53846153846154" x="615.3846153846154" y="615.3846153846154"></rect><rect width="61.53846153846154" height="61.53846153846154" x="676.9230769230769" y="615.3846153846154"></rect><rect width="61.53846153846154" height="61.53846153846154" x="738.4615384615385" y="615.3846153846154"></rect><rect width="61.53846153846154" height="61.53846153846154" x="800" y="615.3846153846154"></rect><rect width="61.53846153846154" height="61.53846153846154" x="0" y="676.9230769230769"></rect><rect width="61.53846153846154" height="61.53846153846154" x="61.53846153846154" y="676.9230769230769"></rect><rect width="61.53846153846154" height="61.53846153846154" x="123.07692307692308" y="676.9230769230769"></rect><rect width="61.53846153846154" height="61.53846153846154" x="184.6153846153846" y="676.9230769230769"></rect><rect width="61.53846153846154" height="61.53846153846154" x="246.15384615384616" y="676.9230769230769"></rect><rect width="61.53846153846154" height="61.53846153846154" x="307.6923076923077" y="676.9230769230769"></rect><rect width="61.53846153846154" height="61.53846153846154" x="369.2307692307692" y="676.9230769230769"></rect><rect width="61.53846153846154" height="61.53846153846154" x="430.7692307692308" y="676.9230769230769"></rect><rect width="61.53846153846154" height="61.53846153846154" x="492.3076923076923" y="676.9230769230769"></rect><rect width="61.53846153846154" height="61.53846153846154" x="553.8461538461538" y="676.9230769230769"></rect><rect width="61.53846153846154" height="61.53846153846154" x="615.3846153846154" y="676.9230769230769"></rect><rect width="61.53846153846154" height="61.53846153846154" x="676.9230769230769" y="676.9230769230769"></rect><rect width="61.53846153846154" height="61.53846153846154" x="738.4615384615385" y="676.9230769230769"></rect><rect width="61.53846153846154" height="61.53846153846154" x="800" y="676.9230769230769"></rect><rect width="61.53846153846154" height="61.53846153846154" x="0" y="738.4615384615385"></rect><rect width="61.53846153846154" height="61.53846153846154" x="61.53846153846154" y="738.4615384615385"></rect><rect width="61.53846153846154" height="61.53846153846154" x="123.07692307692308" y="738.4615384615385"></rect><rect width="61.53846153846154" height="61.53846153846154" x="184.6153846153846" y="738.4615384615385"></rect><rect width="61.53846153846154" height="61.53846153846154" x="246.15384615384616" y="738.4615384615385"></rect><rect width="61.53846153846154" height="61.53846153846154" x="307.6923076923077" y="738.4615384615385"></rect><rect width="61.53846153846154" height="61.53846153846154" x="369.2307692307692" y="738.4615384615385"></rect><rect width="61.53846153846154" height="61.53846153846154" x="430.7692307692308" y="738.4615384615385"></rect><rect width="61.53846153846154" height="61.53846153846154" x="492.3076923076923" y="738.4615384615385"></rect><rect width="61.53846153846154" height="61.53846153846154" x="553.8461538461538" y="738.4615384615385"></rect><rect width="61.53846153846154" height="61.53846153846154" x="615.3846153846154" y="738.4615384615385"></rect><rect width="61.53846153846154" height="61.53846153846154" x="676.9230769230769" y="738.4615384615385"></rect><rect width="61.53846153846154" height="61.53846153846154" x="738.4615384615385" y="738.4615384615385"></rect><rect width="61.53846153846154" height="61.53846153846154" x="800" y="738.4615384615385"></rect><rect width="61.53846153846154" height="61.53846153846154" x="0" y="800"></rect><rect width="61.53846153846154" height="61.53846153846154" x="61.53846153846154" y="800"></rect><rect width="61.53846153846154" height="61.53846153846154" x="123.07692307692308" y="800"></rect><rect width="61.53846153846154" height="61.53846153846154" x="184.6153846153846" y="800"></rect><rect width="61.53846153846154" height="61.53846153846154" x="246.15384615384616" y="800"></rect><rect width="61.53846153846154" height="61.53846153846154" x="307.6923076923077" y="800"></rect><rect width="61.53846153846154" height="61.53846153846154" x="369.2307692307692" y="800"></rect><rect width="61.53846153846154" height="61.53846153846154" x="430.7692307692308" y="800"></rect><rect width="61.53846153846154" height="61.53846153846154" x="492.3076923076923" y="800"></rect><rect width="61.53846153846154" height="61.53846153846154" x="553.8461538461538" y="800"></rect><rect width="61.53846153846154" height="61.53846153846154" x="615.3846153846154" y="800"></rect><rect width="61.53846153846154" height="61.53846153846154" x="676.9230769230769" y="800"></rect><rect width="61.53846153846154" height="61.53846153846154" x="738.4615384615385" y="800"></rect><rect width="61.53846153846154" height="61.53846153846154" x="800" y="800"></rect></g></svg>