<svg xmlns="http://www.w3.org/2000/svg" width="800" height="800" opacity=".1"><g fill="none" stroke="hsla(220, 4%, 303%, 1.00)" stroke-width=".5"><path d="M0 0h61.538v61.538H0zM61.538 0h61.538v61.538H61.538zM123.077 0h61.538v61.538h-61.538zM184.615 0h61.538v61.538h-61.538zM246.154 0h61.538v61.538h-61.538zM307.692 0h61.538v61.538h-61.538zM369.231 0h61.538v61.538h-61.538zM430.769 0h61.538v61.538h-61.538zM492.308 0h61.538v61.538h-61.538zM553.846 0h61.538v61.538h-61.538zM615.385 0h61.538v61.538h-61.538zM676.923 0h61.538v61.538h-61.538zM738.462 0H800v61.538h-61.538zM800 0h61.538v61.538H800zM0 61.538h61.538v61.538H0zM61.538 61.538h61.538v61.538H61.538zM123.077 61.538h61.538v61.538h-61.538zM184.615 61.538h61.538v61.538h-61.538zM246.154 61.538h61.538v61.538h-61.538zM307.692 61.538h61.538v61.538h-61.538zM369.231 61.538h61.538v61.538h-61.538zM430.769 61.538h61.538v61.538h-61.538zM492.308 61.538h61.538v61.538h-61.538zM553.846 61.538h61.538v61.538h-61.538zM615.385 61.538h61.538v61.538h-61.538zM676.923 61.538h61.538v61.538h-61.538zM738.462 61.538H800v61.538h-61.538zM800 61.538h61.538v61.538H800zM0 123.077h61.538v61.538H0zM61.538 123.077h61.538v61.538H61.538zM123.077 123.077h61.538v61.538h-61.538zM184.615 123.077h61.538v61.538h-61.538zM246.154 123.077h61.538v61.538h-61.538zM307.692 123.077h61.538v61.538h-61.538zM369.231 123.077h61.538v61.538h-61.538zM430.769 123.077h61.538v61.538h-61.538zM492.308 123.077h61.538v61.538h-61.538zM553.846 123.077h61.538v61.538h-61.538zM615.385 123.077h61.538v61.538h-61.538zM676.923 123.077h61.538v61.538h-61.538zM738.462 123.077H800v61.538h-61.538zM800 123.077h61.538v61.538H800zM0 184.615h61.538v61.538H0zM61.538 184.615h61.538v61.538H61.538zM123.077 184.615h61.538v61.538h-61.538zM184.615 184.615h61.538v61.538h-61.538zM246.154 184.615h61.538v61.538h-61.538zM307.692 184.615h61.538v61.538h-61.538zM369.231 184.615h61.538v61.538h-61.538zM430.769 184.615h61.538v61.538h-61.538zM492.308 184.615h61.538v61.538h-61.538zM553.846 184.615h61.538v61.538h-61.538zM615.385 184.615h61.538v61.538h-61.538zM676.923 184.615h61.538v61.538h-61.538zM738.462 184.615H800v61.538h-61.538zM800 184.615h61.538v61.538H800zM0 246.154h61.538v61.538H0zM61.538 246.154h61.538v61.538H61.538zM123.077 246.154h61.538v61.538h-61.538zM184.615 246.154h61.538v61.538h-61.538zM246.154 246.154h61.538v61.538h-61.538zM307.692 246.154h61.538v61.538h-61.538zM369.231 246.154h61.538v61.538h-61.538zM430.769 246.154h61.538v61.538h-61.538zM492.308 246.154h61.538v61.538h-61.538zM553.846 246.154h61.538v61.538h-61.538zM615.385 246.154h61.538v61.538h-61.538zM676.923 246.154h61.538v61.538h-61.538zM738.462 246.154H800v61.538h-61.538zM800 246.154h61.538v61.538H800zM0 307.692h61.538v61.538H0zM61.538 307.692h61.538v61.538H61.538zM123.077 307.692h61.538v61.538h-61.538zM184.615 307.692h61.538v61.538h-61.538zM246.154 307.692h61.538v61.538h-61.538zM307.692 307.692h61.538v61.538h-61.538zM369.231 307.692h61.538v61.538h-61.538zM430.769 307.692h61.538v61.538h-61.538zM492.308 307.692h61.538v61.538h-61.538zM553.846 307.692h61.538v61.538h-61.538zM615.385 307.692h61.538v61.538h-61.538zM676.923 307.692h61.538v61.538h-61.538zM738.462 307.692H800v61.538h-61.538zM800 307.692h61.538v61.538H800zM0 369.231h61.538v61.538H0zM61.538 369.231h61.538v61.538H61.538zM123.077 369.231h61.538v61.538h-61.538zM184.615 369.231h61.538v61.538h-61.538zM246.154 369.231h61.538v61.538h-61.538zM307.692 369.231h61.538v61.538h-61.538zM369.231 369.231h61.538v61.538h-61.538zM430.769 369.231h61.538v61.538h-61.538zM492.308 369.231h61.538v61.538h-61.538zM553.846 369.231h61.538v61.538h-61.538zM615.385 369.231h61.538v61.538h-61.538zM676.923 369.231h61.538v61.538h-61.538zM738.462 369.231H800v61.538h-61.538zM800 369.231h61.538v61.538H800zM0 430.769h61.538v61.538H0zM61.538 430.769h61.538v61.538H61.538zM123.077 430.769h61.538v61.538h-61.538zM184.615 430.769h61.538v61.538h-61.538zM246.154 430.769h61.538v61.538h-61.538zM307.692 430.769h61.538v61.538h-61.538zM369.231 430.769h61.538v61.538h-61.538zM430.769 430.769h61.538v61.538h-61.538zM492.308 430.769h61.538v61.538h-61.538zM553.846 430.769h61.538v61.538h-61.538zM615.385 430.769h61.538v61.538h-61.538zM676.923 430.769h61.538v61.538h-61.538zM738.462 430.769H800v61.538h-61.538zM800 430.769h61.538v61.538H800zM0 492.308h61.538v61.538H0zM61.538 492.308h61.538v61.538H61.538zM123.077 492.308h61.538v61.538h-61.538zM184.615 492.308h61.538v61.538h-61.538zM246.154 492.308h61.538v61.538h-61.538zM307.692 492.308h61.538v61.538h-61.538zM369.231 492.308h61.538v61.538h-61.538zM430.769 492.308h61.538v61.538h-61.538zM492.308 492.308h61.538v61.538h-61.538zM553.846 492.308h61.538v61.538h-61.538zM615.385 492.308h61.538v61.538h-61.538zM676.923 492.308h61.538v61.538h-61.538zM738.462 492.308H800v61.538h-61.538zM800 492.308h61.538v61.538H800zM0 553.846h61.538v61.538H0zM61.538 553.846h61.538v61.538H61.538zM123.077 553.846h61.538v61.538h-61.538zM184.615 553.846h61.538v61.538h-61.538zM246.154 553.846h61.538v61.538h-61.538zM307.692 553.846h61.538v61.538h-61.538zM369.231 553.846h61.538v61.538h-61.538zM430.769 553.846h61.538v61.538h-61.538zM492.308 553.846h61.538v61.538h-61.538zM553.846 553.846h61.538v61.538h-61.538zM615.385 553.846h61.538v61.538h-61.538zM676.923 553.846h61.538v61.538h-61.538zM738.462 553.846H800v61.538h-61.538zM800 553.846h61.538v61.538H800zM0 615.385h61.538v61.538H0zM61.538 615.385h61.538v61.538H61.538zM123.077 615.385h61.538v61.538h-61.538zM184.615 615.385h61.538v61.538h-61.538zM246.154 615.385h61.538v61.538h-61.538zM307.692 615.385h61.538v61.538h-61.538zM369.231 615.385h61.538v61.538h-61.538zM430.769 615.385h61.538v61.538h-61.538zM492.308 615.385h61.538v61.538h-61.538zM553.846 615.385h61.538v61.538h-61.538zM615.385 615.385h61.538v61.538h-61.538zM676.923 615.385h61.538v61.538h-61.538zM738.462 615.385H800v61.538h-61.538zM800 615.385h61.538v61.538H800zM0 676.923h61.538v61.538H0zM61.538 676.923h61.538v61.538H61.538zM123.077 676.923h61.538v61.538h-61.538zM184.615 676.923h61.538v61.538h-61.538zM246.154 676.923h61.538v61.538h-61.538zM307.692 676.923h61.538v61.538h-61.538zM369.231 676.923h61.538v61.538h-61.538zM430.769 676.923h61.538v61.538h-61.538zM492.308 676.923h61.538v61.538h-61.538zM553.846 676.923h61.538v61.538h-61.538zM615.385 676.923h61.538v61.538h-61.538zM676.923 676.923h61.538v61.538h-61.538zM738.462 676.923H800v61.538h-61.538zM800 676.923h61.538v61.538H800zM0 738.462h61.538V800H0zM61.538 738.462h61.538V800H61.538zM123.077 738.462h61.538V800h-61.538zM184.615 738.462h61.538V800h-61.538zM246.154 738.462h61.538V800h-61.538zM307.692 738.462h61.538V800h-61.538zM369.231 738.462h61.538V800h-61.538zM430.769 738.462h61.538V800h-61.538zM492.308 738.462h61.538V800h-61.538zM553.846 738.462h61.538V800h-61.538zM615.385 738.462h61.538V800h-61.538zM676.923 738.462h61.538V800h-61.538zM738.462 738.462H800V800h-61.538zM800 738.462h61.538V800H800zM0 800h61.538v61.538H0zM61.538 800h61.538v61.538H61.538zM123.077 800h61.538v61.538h-61.538zM184.615 800h61.538v61.538h-61.538zM246.154 800h61.538v61.538h-61.538zM307.692 800h61.538v61.538h-61.538zM369.231 800h61.538v61.538h-61.538zM430.769 800h61.538v61.538h-61.538zM492.308 800h61.538v61.538h-61.538zM553.846 800h61.538v61.538h-61.538zM615.385 800h61.538v61.538h-61.538zM676.923 800h61.538v61.538h-61.538zM738.462 800H800v61.538h-61.538zM800 800h61.538v61.538H800z"/></g></svg>